<?xml version="1.0" encoding="UTF-8"?>
<svg xmlns="http://www.w3.org/2000/svg" width="960" height="420" viewBox="0 0 960 420">
  <rect width="100%" height="100%" fill="#fafbfc"/>
  <text x="72" y="28" font-family="Segoe UI,sans-serif" font-size="16" font-weight="600" fill="#0f172a">GOOGL ORB compound equity | since_listing (2026-03-26, 76d) | premarket on (enhanced)</text>
  <text x="72" y="44" font-family="Segoe UI,sans-serif" font-size="12" fill="#64748b">init 10,000 U → 16,816 U (+68.2%)</text>
  <line x1="72" y1="356.0" x2="936" y2="356.0" stroke="#e8ecf1" stroke-width="1"/><text x="64" y="360.0" text-anchor="end" font-family="Segoe UI,sans-serif" font-size="11" fill="#64748b">9,237</text><line x1="72" y1="279.0" x2="936" y2="279.0" stroke="#e8ecf1" stroke-width="1"/><text x="64" y="283.0" text-anchor="end" font-family="Segoe UI,sans-serif" font-size="11" fill="#64748b">11,389</text><line x1="72" y1="202.0" x2="936" y2="202.0" stroke="#e8ecf1" stroke-width="1"/><text x="64" y="206.0" text-anchor="end" font-family="Segoe UI,sans-serif" font-size="11" fill="#64748b">13,541</text><line x1="72" y1="125.0" x2="936" y2="125.0" stroke="#e8ecf1" stroke-width="1"/><text x="64" y="129.0" text-anchor="end" font-family="Segoe UI,sans-serif" font-size="11" fill="#64748b">15,694</text><line x1="72" y1="48.0" x2="936" y2="48.0" stroke="#e8ecf1" stroke-width="1"/><text x="64" y="52.0" text-anchor="end" font-family="Segoe UI,sans-serif" font-size="11" fill="#64748b">17,846</text>
  <polygon points="72.0,356.0 72.0,328.7 93.6,331.7 115.2,334.8 136.8,286.8 158.4,290.2 180.0,293.6 201.6,296.9 223.2,300.2 244.8,267.4 266.4,271.0 288.0,274.5 309.6,278.0 331.2,242.7 352.8,246.5 374.4,250.2 396.0,253.9 417.6,257.6 439.2,261.2 460.8,264.9 482.4,268.4 504.0,272.0 525.6,245.9 547.2,122.8 568.8,127.5 590.4,132.3 612.0,137.0 633.6,141.7 655.2,146.3 676.8,150.9 698.4,155.5 720.0,119.0 741.6,123.8 763.2,128.6 784.8,133.3 806.4,138.0 828.0,142.7 849.6,147.3 871.2,69.2 892.8,74.5 914.4,79.7 936.0,84.8 936.0,356.0" fill="#2563eb" fill-opacity="0.12"/>
  <polyline points="72.0,328.7 93.6,331.7 115.2,334.8 136.8,286.8 158.4,290.2 180.0,293.6 201.6,296.9 223.2,300.2 244.8,267.4 266.4,271.0 288.0,274.5 309.6,278.0 331.2,242.7 352.8,246.5 374.4,250.2 396.0,253.9 417.6,257.6 439.2,261.2 460.8,264.9 482.4,268.4 504.0,272.0 525.6,245.9 547.2,122.8 568.8,127.5 590.4,132.3 612.0,137.0 633.6,141.7 655.2,146.3 676.8,150.9 698.4,155.5 720.0,119.0 741.6,123.8 763.2,128.6 784.8,133.3 806.4,138.0 828.0,142.7 849.6,147.3 871.2,69.2 892.8,74.5 914.4,79.7 936.0,84.8" fill="none" stroke="#2563eb" stroke-width="2.5" stroke-linejoin="round" stroke-linecap="round"/>
  <text x="72.0" y="392" text-anchor="middle" font-family="Segoe UI,sans-serif" font-size="11" fill="#64748b">2026-04-09</text><text x="936.0" y="392" text-anchor="middle" font-family="Segoe UI,sans-serif" font-size="11" fill="#64748b">2026-06-09</text><text x="504.0" y="392" text-anchor="middle" font-family="Segoe UI,sans-serif" font-size="11" fill="#64748b">2026-05-08</text>
  <circle cx="936.0" cy="84.8" r="4" fill="#2563eb"/>
</svg>
