<?xml version="1.0" encoding="UTF-8"?>
<svg xmlns="http://www.w3.org/2000/svg" width="960" height="420" viewBox="0 0 960 420">
  <rect width="100%" height="100%" fill="#fafbfc"/>
  <text x="72" y="28" font-family="Segoe UI,sans-serif" font-size="16" font-weight="600" fill="#0f172a">QQQ ORB compound equity | since_listing (2026-04-06, 66d) | premarket on (enhanced)</text>
  <text x="72" y="44" font-family="Segoe UI,sans-serif" font-size="12" fill="#64748b">init 10,000 U → 15,165 U (+51.7%)</text>
  <line x1="72" y1="356.0" x2="936" y2="356.0" stroke="#e8ecf1" stroke-width="1"/><text x="64" y="360.0" text-anchor="end" font-family="Segoe UI,sans-serif" font-size="11" fill="#64748b">9,383</text><line x1="72" y1="279.0" x2="936" y2="279.0" stroke="#e8ecf1" stroke-width="1"/><text x="64" y="283.0" text-anchor="end" font-family="Segoe UI,sans-serif" font-size="11" fill="#64748b">11,006</text><line x1="72" y1="202.0" x2="936" y2="202.0" stroke="#e8ecf1" stroke-width="1"/><text x="64" y="206.0" text-anchor="end" font-family="Segoe UI,sans-serif" font-size="11" fill="#64748b">12,628</text><line x1="72" y1="125.0" x2="936" y2="125.0" stroke="#e8ecf1" stroke-width="1"/><text x="64" y="129.0" text-anchor="end" font-family="Segoe UI,sans-serif" font-size="11" fill="#64748b">14,251</text><line x1="72" y1="48.0" x2="936" y2="48.0" stroke="#e8ecf1" stroke-width="1"/><text x="64" y="52.0" text-anchor="end" font-family="Segoe UI,sans-serif" font-size="11" fill="#64748b">15,874</text>
  <polygon points="72.0,356.0 72.0,326.7 97.4,330.8 122.8,334.8 148.2,289.0 173.6,293.4 199.1,297.7 224.5,302.0 249.9,306.2 275.3,310.4 300.7,314.6 326.1,318.7 351.5,322.8 376.9,326.9 402.4,330.9 427.8,259.5 453.2,264.1 478.6,268.6 504.0,273.2 529.4,277.7 554.8,282.1 580.2,286.5 605.6,237.0 631.1,241.8 656.5,246.6 681.9,251.3 707.3,256.0 732.7,260.6 758.1,265.2 783.5,236.3 808.9,241.1 834.4,245.8 859.8,250.6 885.2,69.2 910.6,75.5 936.0,81.6 936.0,356.0" fill="#2563eb" fill-opacity="0.12"/>
  <polyline points="72.0,326.7 97.4,330.8 122.8,334.8 148.2,289.0 173.6,293.4 199.1,297.7 224.5,302.0 249.9,306.2 275.3,310.4 300.7,314.6 326.1,318.7 351.5,322.8 376.9,326.9 402.4,330.9 427.8,259.5 453.2,264.1 478.6,268.6 504.0,273.2 529.4,277.7 554.8,282.1 580.2,286.5 605.6,237.0 631.1,241.8 656.5,246.6 681.9,251.3 707.3,256.0 732.7,260.6 758.1,265.2 783.5,236.3 808.9,241.1 834.4,245.8 859.8,250.6 885.2,69.2 910.6,75.5 936.0,81.6" fill="none" stroke="#2563eb" stroke-width="2.5" stroke-linejoin="round" stroke-linecap="round"/>
  <text x="72.0" y="392" text-anchor="middle" font-family="Segoe UI,sans-serif" font-size="11" fill="#64748b">2026-04-20</text><text x="504.0" y="392" text-anchor="middle" font-family="Segoe UI,sans-serif" font-size="11" fill="#64748b">2026-05-14</text><text x="936.0" y="392" text-anchor="middle" font-family="Segoe UI,sans-serif" font-size="11" fill="#64748b">2026-06-09</text>
  <circle cx="936.0" cy="81.6" r="4" fill="#2563eb"/>
</svg>
