<?xml version="1.0" encoding="UTF-8"?>
<svg xmlns="http://www.w3.org/2000/svg" width="960" height="420" viewBox="0 0 960 420">
  <rect width="100%" height="100%" fill="#fafbfc"/>
  <text x="72" y="28" font-family="Segoe UI,sans-serif" font-size="16" font-weight="600" fill="#0f172a">EWY ORB compound equity | since_listing (2026-03-16, 87d) | premarket on (enhanced)</text>
  <text x="72" y="44" font-family="Segoe UI,sans-serif" font-size="12" fill="#64748b">init 10,000 U → 17,826 U (+78.3%)</text>
  <line x1="72" y1="356.0" x2="936" y2="356.0" stroke="#e8ecf1" stroke-width="1"/><text x="64" y="360.0" text-anchor="end" font-family="Segoe UI,sans-serif" font-size="11" fill="#64748b">9,281</text><line x1="72" y1="279.0" x2="936" y2="279.0" stroke="#e8ecf1" stroke-width="1"/><text x="64" y="283.0" text-anchor="end" font-family="Segoe UI,sans-serif" font-size="11" fill="#64748b">11,580</text><line x1="72" y1="202.0" x2="936" y2="202.0" stroke="#e8ecf1" stroke-width="1"/><text x="64" y="206.0" text-anchor="end" font-family="Segoe UI,sans-serif" font-size="11" fill="#64748b">13,879</text><line x1="72" y1="125.0" x2="936" y2="125.0" stroke="#e8ecf1" stroke-width="1"/><text x="64" y="129.0" text-anchor="end" font-family="Segoe UI,sans-serif" font-size="11" fill="#64748b">16,179</text><line x1="72" y1="48.0" x2="936" y2="48.0" stroke="#e8ecf1" stroke-width="1"/><text x="64" y="52.0" text-anchor="end" font-family="Segoe UI,sans-serif" font-size="11" fill="#64748b">18,478</text>
  <polygon points="72.0,356.0 72.0,331.9 90.4,334.8 108.8,278.0 127.1,281.3 145.5,241.6 163.9,245.2 182.3,248.8 200.7,252.4 219.1,255.9 237.4,205.7 255.8,153.4 274.2,157.8 292.6,162.1 311.0,166.4 329.4,170.6 347.7,174.9 366.1,124.5 384.5,129.1 402.9,122.0 421.3,126.6 439.7,131.2 458.0,135.7 476.4,140.3 494.8,144.7 513.2,107.5 531.6,112.2 550.0,69.2 568.3,74.3 586.7,79.4 605.1,84.3 623.5,89.3 641.9,94.2 660.3,99.1 678.6,103.9 697.0,108.7 715.4,113.4 733.8,118.1 752.2,122.8 770.6,127.4 788.9,132.0 807.3,136.6 825.7,88.6 844.1,93.5 862.5,98.4 880.9,103.2 899.2,108.0 917.6,112.8 936.0,69.8 936.0,356.0" fill="#2563eb" fill-opacity="0.12"/>
  <polyline points="72.0,331.9 90.4,334.8 108.8,278.0 127.1,281.3 145.5,241.6 163.9,245.2 182.3,248.8 200.7,252.4 219.1,255.9 237.4,205.7 255.8,153.4 274.2,157.8 292.6,162.1 311.0,166.4 329.4,170.6 347.7,174.9 366.1,124.5 384.5,129.1 402.9,122.0 421.3,126.6 439.7,131.2 458.0,135.7 476.4,140.3 494.8,144.7 513.2,107.5 531.6,112.2 550.0,69.2 568.3,74.3 586.7,79.4 605.1,84.3 623.5,89.3 641.9,94.2 660.3,99.1 678.6,103.9 697.0,108.7 715.4,113.4 733.8,118.1 752.2,122.8 770.6,127.4 788.9,132.0 807.3,136.6 825.7,88.6 844.1,93.5 862.5,98.4 880.9,103.2 899.2,108.0 917.6,112.8 936.0,69.8" fill="none" stroke="#2563eb" stroke-width="2.5" stroke-linejoin="round" stroke-linecap="round"/>
  <text x="72.0" y="392" text-anchor="middle" font-family="Segoe UI,sans-serif" font-size="11" fill="#64748b">2026-03-30</text><text x="513.2" y="392" text-anchor="middle" font-family="Segoe UI,sans-serif" font-size="11" fill="#64748b">2026-05-05</text><text x="936.0" y="392" text-anchor="middle" font-family="Segoe UI,sans-serif" font-size="11" fill="#64748b">2026-06-09</text>
  <circle cx="936.0" cy="69.8" r="4" fill="#2563eb"/>
</svg>
