<?xml version="1.0" encoding="UTF-8"?>
<svg xmlns="http://www.w3.org/2000/svg" width="960" height="420" viewBox="0 0 960 420">
  <rect width="100%" height="100%" fill="#fafbfc"/>
  <text x="72" y="28" font-family="Segoe UI,sans-serif" font-size="16" font-weight="600" fill="#0f172a">MSTR ORB compound equity | since_listing (2026-02-09, 122d) | premarket on (enhanced)</text>
  <text x="72" y="44" font-family="Segoe UI,sans-serif" font-size="12" fill="#64748b">init 1,000 U → 1,904 U (+90.4%)</text>
  <line x1="72" y1="356.0" x2="936" y2="356.0" stroke="#e8ecf1" stroke-width="1"/><text x="64" y="360.0" text-anchor="end" font-family="Segoe UI,sans-serif" font-size="11" fill="#64748b">830</text><line x1="72" y1="279.0" x2="936" y2="279.0" stroke="#e8ecf1" stroke-width="1"/><text x="64" y="283.0" text-anchor="end" font-family="Segoe UI,sans-serif" font-size="11" fill="#64748b">1,118</text><line x1="72" y1="202.0" x2="936" y2="202.0" stroke="#e8ecf1" stroke-width="1"/><text x="64" y="206.0" text-anchor="end" font-family="Segoe UI,sans-serif" font-size="11" fill="#64748b">1,407</text><line x1="72" y1="125.0" x2="936" y2="125.0" stroke="#e8ecf1" stroke-width="1"/><text x="64" y="129.0" text-anchor="end" font-family="Segoe UI,sans-serif" font-size="11" fill="#64748b">1,695</text><line x1="72" y1="48.0" x2="936" y2="48.0" stroke="#e8ecf1" stroke-width="1"/><text x="64" y="52.0" text-anchor="end" font-family="Segoe UI,sans-serif" font-size="11" fill="#64748b">1,983</text>
  <polygon points="72.0,356.0 72.0,310.6 84.3,312.8 96.7,315.1 109.0,317.3 121.4,319.5 133.7,321.7 146.1,308.8 158.4,311.1 170.7,308.6 183.1,310.9 195.4,313.1 207.8,315.4 220.1,317.6 232.5,319.8 244.8,322.0 257.1,324.2 269.5,326.3 281.8,328.5 294.2,330.6 306.5,332.7 318.9,334.8 331.2,327.0 343.5,329.1 355.9,319.7 368.2,321.9 380.6,324.1 392.9,326.2 405.3,328.4 417.6,330.5 429.9,321.9 442.3,324.1 454.6,326.3 467.0,288.3 479.3,290.8 491.7,266.6 504.0,269.2 516.3,223.5 528.7,226.5 541.0,229.5 553.4,232.4 565.7,235.4 578.1,211.0 590.4,214.1 602.7,217.2 615.1,220.2 627.4,196.5 639.8,199.8 652.1,203.0 664.5,206.2 676.8,209.3 689.1,212.4 701.5,173.1 713.8,176.5 726.2,179.9 738.5,183.3 750.9,186.7 763.2,190.0 775.5,193.3 787.9,196.5 800.2,199.8 812.6,203.0 824.9,206.2 837.3,186.1 849.6,189.4 861.9,192.7 874.3,170.1 886.6,121.4 899.0,125.3 911.3,109.6 923.7,113.5 936.0,69.2 936.0,356.0" fill="#2563eb" fill-opacity="0.12"/>
  <polyline points="72.0,310.6 84.3,312.8 96.7,315.1 109.0,317.3 121.4,319.5 133.7,321.7 146.1,308.8 158.4,311.1 170.7,308.6 183.1,310.9 195.4,313.1 207.8,315.4 220.1,317.6 232.5,319.8 244.8,322.0 257.1,324.2 269.5,326.3 281.8,328.5 294.2,330.6 306.5,332.7 318.9,334.8 331.2,327.0 343.5,329.1 355.9,319.7 368.2,321.9 380.6,324.1 392.9,326.2 405.3,328.4 417.6,330.5 429.9,321.9 442.3,324.1 454.6,326.3 467.0,288.3 479.3,290.8 491.7,266.6 504.0,269.2 516.3,223.5 528.7,226.5 541.0,229.5 553.4,232.4 565.7,235.4 578.1,211.0 590.4,214.1 602.7,217.2 615.1,220.2 627.4,196.5 639.8,199.8 652.1,203.0 664.5,206.2 676.8,209.3 689.1,212.4 701.5,173.1 713.8,176.5 726.2,179.9 738.5,183.3 750.9,186.7 763.2,190.0 775.5,193.3 787.9,196.5 800.2,199.8 812.6,203.0 824.9,206.2 837.3,186.1 849.6,189.4 861.9,192.7 874.3,170.1 886.6,121.4 899.0,125.3 911.3,109.6 923.7,113.5 936.0,69.2" fill="none" stroke="#2563eb" stroke-width="2.5" stroke-linejoin="round" stroke-linecap="round"/>
  <text x="72.0" y="392" text-anchor="middle" font-family="Segoe UI,sans-serif" font-size="11" fill="#64748b">2026-02-23</text><text x="504.0" y="392" text-anchor="middle" font-family="Segoe UI,sans-serif" font-size="11" fill="#64748b">2026-04-16</text><text x="936.0" y="392" text-anchor="middle" font-family="Segoe UI,sans-serif" font-size="11" fill="#64748b">2026-06-09</text>
  <circle cx="936.0" cy="69.2" r="4" fill="#2563eb"/>
</svg>
