<?xml version="1.0" encoding="UTF-8"?>
<svg xmlns="http://www.w3.org/2000/svg" width="960" height="420" viewBox="0 0 960 420">
  <rect width="100%" height="100%" fill="#fafbfc"/>
  <text x="72" y="28" font-family="Segoe UI,sans-serif" font-size="16" font-weight="600" fill="#0f172a">PAYP ORB compound equity | since_listing (2026-03-23, 79d) | premarket on (enhanced)</text>
  <text x="72" y="44" font-family="Segoe UI,sans-serif" font-size="12" fill="#64748b">init 10,000 U → 21,366 U (+113.7%)</text>
  <line x1="72" y1="356.0" x2="936" y2="356.0" stroke="#e8ecf1" stroke-width="1"/><text x="64" y="360.0" text-anchor="end" font-family="Segoe UI,sans-serif" font-size="11" fill="#64748b">8,955</text><line x1="72" y1="279.0" x2="936" y2="279.0" stroke="#e8ecf1" stroke-width="1"/><text x="64" y="283.0" text-anchor="end" font-family="Segoe UI,sans-serif" font-size="11" fill="#64748b">12,436</text><line x1="72" y1="202.0" x2="936" y2="202.0" stroke="#e8ecf1" stroke-width="1"/><text x="64" y="206.0" text-anchor="end" font-family="Segoe UI,sans-serif" font-size="11" fill="#64748b">15,918</text><line x1="72" y1="125.0" x2="936" y2="125.0" stroke="#e8ecf1" stroke-width="1"/><text x="64" y="129.0" text-anchor="end" font-family="Segoe UI,sans-serif" font-size="11" fill="#64748b">19,399</text><line x1="72" y1="48.0" x2="936" y2="48.0" stroke="#e8ecf1" stroke-width="1"/><text x="64" y="52.0" text-anchor="end" font-family="Segoe UI,sans-serif" font-size="11" fill="#64748b">22,881</text>
  <polygon points="72.0,356.0 72.0,332.9 94.2,334.8 116.3,320.0 138.5,321.9 160.6,323.9 182.8,319.0 204.9,295.8 227.1,281.8 249.2,260.8 271.4,263.3 293.5,265.7 315.7,240.9 337.8,243.5 360.0,246.2 382.2,248.8 404.3,251.4 426.5,253.9 448.6,256.5 470.8,259.0 492.9,261.5 515.1,264.0 537.2,171.6 559.4,174.9 581.5,170.0 603.7,173.3 625.8,176.5 648.0,179.7 670.2,182.9 692.3,150.5 714.5,153.9 736.6,157.3 758.8,160.7 780.9,120.1 803.1,123.8 825.2,127.4 847.4,131.0 869.5,69.2 891.7,73.4 913.8,77.4 936.0,81.5 936.0,356.0" fill="#2563eb" fill-opacity="0.12"/>
  <polyline points="72.0,332.9 94.2,334.8 116.3,320.0 138.5,321.9 160.6,323.9 182.8,319.0 204.9,295.8 227.1,281.8 249.2,260.8 271.4,263.3 293.5,265.7 315.7,240.9 337.8,243.5 360.0,246.2 382.2,248.8 404.3,251.4 426.5,253.9 448.6,256.5 470.8,259.0 492.9,261.5 515.1,264.0 537.2,171.6 559.4,174.9 581.5,170.0 603.7,173.3 625.8,176.5 648.0,179.7 670.2,182.9 692.3,150.5 714.5,153.9 736.6,157.3 758.8,160.7 780.9,120.1 803.1,123.8 825.2,127.4 847.4,131.0 869.5,69.2 891.7,73.4 913.8,77.4 936.0,81.5" fill="none" stroke="#2563eb" stroke-width="2.5" stroke-linejoin="round" stroke-linecap="round"/>
  <text x="72.0" y="392" text-anchor="middle" font-family="Segoe UI,sans-serif" font-size="11" fill="#64748b">2026-04-06</text><text x="515.1" y="392" text-anchor="middle" font-family="Segoe UI,sans-serif" font-size="11" fill="#64748b">2026-05-06</text><text x="936.0" y="392" text-anchor="middle" font-family="Segoe UI,sans-serif" font-size="11" fill="#64748b">2026-06-08</text>
  <circle cx="936.0" cy="81.5" r="4" fill="#2563eb"/>
</svg>
