<?xml version="1.0" encoding="UTF-8"?>
<svg xmlns="http://www.w3.org/2000/svg" width="960" height="420" viewBox="0 0 960 420">
  <rect width="100%" height="100%" fill="#fafbfc"/>
  <text x="72" y="28" font-family="Segoe UI,sans-serif" font-size="16" font-weight="600" fill="#0f172a">PLTR ORB compound equity | since_listing (2026-02-09, 121d) | premarket on (enhanced)</text>
  <text x="72" y="44" font-family="Segoe UI,sans-serif" font-size="12" fill="#64748b">init 10,000 U → 22,709 U (+127.1%)</text>
  <line x1="72" y1="356.0" x2="936" y2="356.0" stroke="#e8ecf1" stroke-width="1"/><text x="64" y="360.0" text-anchor="end" font-family="Segoe UI,sans-serif" font-size="11" fill="#64748b">8,396</text><line x1="72" y1="279.0" x2="936" y2="279.0" stroke="#e8ecf1" stroke-width="1"/><text x="64" y="283.0" text-anchor="end" font-family="Segoe UI,sans-serif" font-size="11" fill="#64748b">12,239</text><line x1="72" y1="202.0" x2="936" y2="202.0" stroke="#e8ecf1" stroke-width="1"/><text x="64" y="206.0" text-anchor="end" font-family="Segoe UI,sans-serif" font-size="11" fill="#64748b">16,083</text><line x1="72" y1="125.0" x2="936" y2="125.0" stroke="#e8ecf1" stroke-width="1"/><text x="64" y="129.0" text-anchor="end" font-family="Segoe UI,sans-serif" font-size="11" fill="#64748b">19,926</text><line x1="72" y1="48.0" x2="936" y2="48.0" stroke="#e8ecf1" stroke-width="1"/><text x="64" y="52.0" text-anchor="end" font-family="Segoe UI,sans-serif" font-size="11" fill="#64748b">23,769</text>
  <polygon points="72.0,356.0 72.0,323.9 84.9,308.8 97.8,310.6 110.7,312.4 123.6,314.2 136.5,316.0 149.4,317.8 162.3,319.5 175.2,321.3 188.1,323.0 201.0,310.7 213.9,312.5 226.7,314.3 239.6,316.1 252.5,317.9 265.4,319.6 278.3,321.4 291.2,323.1 304.1,324.8 317.0,326.5 329.9,328.2 342.8,329.8 355.7,331.5 368.6,333.1 381.5,334.8 394.4,308.8 407.3,310.7 420.2,312.5 433.1,257.9 446.0,235.9 458.9,238.3 471.8,240.8 484.7,216.0 497.6,218.7 510.4,221.2 523.3,223.8 536.2,226.4 549.1,179.0 562.0,182.0 574.9,184.9 587.8,187.8 600.7,190.6 613.6,193.5 626.5,196.3 639.4,199.1 652.3,201.8 665.2,204.6 678.1,207.3 691.0,210.0 703.9,177.5 716.8,180.5 729.7,183.4 742.6,186.3 755.5,189.2 768.4,162.2 781.3,165.2 794.1,168.3 807.0,171.3 819.9,174.3 832.8,177.3 845.7,137.3 858.6,140.6 871.5,143.9 884.4,147.1 897.3,132.7 910.2,95.0 923.1,98.6 936.0,69.2 936.0,356.0" fill="#2563eb" fill-opacity="0.12"/>
  <polyline points="72.0,323.9 84.9,308.8 97.8,310.6 110.7,312.4 123.6,314.2 136.5,316.0 149.4,317.8 162.3,319.5 175.2,321.3 188.1,323.0 201.0,310.7 213.9,312.5 226.7,314.3 239.6,316.1 252.5,317.9 265.4,319.6 278.3,321.4 291.2,323.1 304.1,324.8 317.0,326.5 329.9,328.2 342.8,329.8 355.7,331.5 368.6,333.1 381.5,334.8 394.4,308.8 407.3,310.7 420.2,312.5 433.1,257.9 446.0,235.9 458.9,238.3 471.8,240.8 484.7,216.0 497.6,218.7 510.4,221.2 523.3,223.8 536.2,226.4 549.1,179.0 562.0,182.0 574.9,184.9 587.8,187.8 600.7,190.6 613.6,193.5 626.5,196.3 639.4,199.1 652.3,201.8 665.2,204.6 678.1,207.3 691.0,210.0 703.9,177.5 716.8,180.5 729.7,183.4 742.6,186.3 755.5,189.2 768.4,162.2 781.3,165.2 794.1,168.3 807.0,171.3 819.9,174.3 832.8,177.3 845.7,137.3 858.6,140.6 871.5,143.9 884.4,147.1 897.3,132.7 910.2,95.0 923.1,98.6 936.0,69.2" fill="none" stroke="#2563eb" stroke-width="2.5" stroke-linejoin="round" stroke-linecap="round"/>
  <text x="72.0" y="392" text-anchor="middle" font-family="Segoe UI,sans-serif" font-size="11" fill="#64748b">2026-02-25</text><text x="510.4" y="392" text-anchor="middle" font-family="Segoe UI,sans-serif" font-size="11" fill="#64748b">2026-04-17</text><text x="936.0" y="392" text-anchor="middle" font-family="Segoe UI,sans-serif" font-size="11" fill="#64748b">2026-06-09</text>
  <circle cx="936.0" cy="69.2" r="4" fill="#2563eb"/>
</svg>
