<?xml version="1.0" encoding="UTF-8"?>
<svg xmlns="http://www.w3.org/2000/svg" width="960" height="420" viewBox="0 0 960 420">
  <rect width="100%" height="100%" fill="#fafbfc"/>
  <text x="72" y="28" font-family="Segoe UI,sans-serif" font-size="16" font-weight="600" fill="#0f172a">COIN ORB compound equity | since_listing (2026-02-09, 121d) | premarket on (enhanced)</text>
  <text x="72" y="44" font-family="Segoe UI,sans-serif" font-size="12" fill="#64748b">init 10,000 U → 65,057 U (+550.6%)</text>
  <line x1="72" y1="356.0" x2="936" y2="356.0" stroke="#e8ecf1" stroke-width="1"/><text x="64" y="360.0" text-anchor="end" font-family="Segoe UI,sans-serif" font-size="11" fill="#64748b">5,551</text><line x1="72" y1="279.0" x2="936" y2="279.0" stroke="#e8ecf1" stroke-width="1"/><text x="64" y="283.0" text-anchor="end" font-family="Segoe UI,sans-serif" font-size="11" fill="#64748b">21,679</text><line x1="72" y1="202.0" x2="936" y2="202.0" stroke="#e8ecf1" stroke-width="1"/><text x="64" y="206.0" text-anchor="end" font-family="Segoe UI,sans-serif" font-size="11" fill="#64748b">37,807</text><line x1="72" y1="125.0" x2="936" y2="125.0" stroke="#e8ecf1" stroke-width="1"/><text x="64" y="129.0" text-anchor="end" font-family="Segoe UI,sans-serif" font-size="11" fill="#64748b">53,936</text><line x1="72" y1="48.0" x2="936" y2="48.0" stroke="#e8ecf1" stroke-width="1"/><text x="64" y="52.0" text-anchor="end" font-family="Segoe UI,sans-serif" font-size="11" fill="#64748b">70,064</text>
  <polygon points="72.0,356.0 72.0,334.8 84.7,332.7 97.4,333.1 110.1,323.7 122.8,324.2 135.5,324.7 148.2,325.2 160.9,325.7 173.6,322.6 186.4,323.1 199.1,323.6 211.8,324.1 224.5,324.6 237.2,325.1 249.9,325.6 262.6,326.1 275.3,325.3 288.0,325.7 300.7,326.2 313.4,326.7 326.1,312.5 338.8,313.1 351.5,313.7 364.2,311.0 376.9,311.6 389.6,312.2 402.4,312.8 415.1,308.7 427.8,309.4 440.5,299.5 453.2,300.2 465.9,289.3 478.6,290.0 491.3,275.5 504.0,276.4 516.7,277.3 529.4,278.2 542.1,263.1 554.8,264.2 567.5,265.2 580.2,266.2 592.9,267.1 605.6,267.2 618.4,268.2 631.1,269.1 643.8,267.6 656.5,258.1 669.2,255.2 681.9,227.1 694.6,192.3 707.3,193.9 720.0,195.5 732.7,197.1 745.4,198.6 758.1,200.2 770.8,201.8 783.5,203.3 796.2,185.4 808.9,187.0 821.6,188.7 834.4,152.3 847.1,134.1 859.8,136.2 872.5,129.4 885.2,103.4 897.9,105.8 910.6,90.2 923.3,69.2 936.0,71.9 936.0,356.0" fill="#2563eb" fill-opacity="0.12"/>
  <polyline points="72.0,334.8 84.7,332.7 97.4,333.1 110.1,323.7 122.8,324.2 135.5,324.7 148.2,325.2 160.9,325.7 173.6,322.6 186.4,323.1 199.1,323.6 211.8,324.1 224.5,324.6 237.2,325.1 249.9,325.6 262.6,326.1 275.3,325.3 288.0,325.7 300.7,326.2 313.4,326.7 326.1,312.5 338.8,313.1 351.5,313.7 364.2,311.0 376.9,311.6 389.6,312.2 402.4,312.8 415.1,308.7 427.8,309.4 440.5,299.5 453.2,300.2 465.9,289.3 478.6,290.0 491.3,275.5 504.0,276.4 516.7,277.3 529.4,278.2 542.1,263.1 554.8,264.2 567.5,265.2 580.2,266.2 592.9,267.1 605.6,267.2 618.4,268.2 631.1,269.1 643.8,267.6 656.5,258.1 669.2,255.2 681.9,227.1 694.6,192.3 707.3,193.9 720.0,195.5 732.7,197.1 745.4,198.6 758.1,200.2 770.8,201.8 783.5,203.3 796.2,185.4 808.9,187.0 821.6,188.7 834.4,152.3 847.1,134.1 859.8,136.2 872.5,129.4 885.2,103.4 897.9,105.8 910.6,90.2 923.3,69.2 936.0,71.9" fill="none" stroke="#2563eb" stroke-width="2.5" stroke-linejoin="round" stroke-linecap="round"/>
  <text x="72.0" y="392" text-anchor="middle" font-family="Segoe UI,sans-serif" font-size="11" fill="#64748b">2026-02-23</text><text x="504.0" y="392" text-anchor="middle" font-family="Segoe UI,sans-serif" font-size="11" fill="#64748b">2026-04-16</text><text x="936.0" y="392" text-anchor="middle" font-family="Segoe UI,sans-serif" font-size="11" fill="#64748b">2026-06-09</text>
  <circle cx="936.0" cy="71.9" r="4" fill="#2563eb"/>
</svg>
