<?xml version="1.0" encoding="UTF-8"?>
<svg xmlns="http://www.w3.org/2000/svg" width="960" height="420" viewBox="0 0 960 420">
  <rect width="100%" height="100%" fill="#fafbfc"/>
  <text x="72" y="28" font-family="Segoe UI,sans-serif" font-size="16" font-weight="600" fill="#0f172a">INTC ORB compound equity | since_listing (2026-02-02, 128d) | premarket on (enhanced)</text>
  <text x="72" y="44" font-family="Segoe UI,sans-serif" font-size="12" fill="#64748b">init 10,000 U → 32,263 U (+222.6%)</text>
  <line x1="72" y1="356.0" x2="936" y2="356.0" stroke="#e8ecf1" stroke-width="1"/><text x="64" y="360.0" text-anchor="end" font-family="Segoe UI,sans-serif" font-size="11" fill="#64748b">7,768</text><line x1="72" y1="279.0" x2="936" y2="279.0" stroke="#e8ecf1" stroke-width="1"/><text x="64" y="283.0" text-anchor="end" font-family="Segoe UI,sans-serif" font-size="11" fill="#64748b">14,345</text><line x1="72" y1="202.0" x2="936" y2="202.0" stroke="#e8ecf1" stroke-width="1"/><text x="64" y="206.0" text-anchor="end" font-family="Segoe UI,sans-serif" font-size="11" fill="#64748b">20,923</text><line x1="72" y1="125.0" x2="936" y2="125.0" stroke="#e8ecf1" stroke-width="1"/><text x="64" y="129.0" text-anchor="end" font-family="Segoe UI,sans-serif" font-size="11" fill="#64748b">27,500</text><line x1="72" y1="48.0" x2="936" y2="48.0" stroke="#e8ecf1" stroke-width="1"/><text x="64" y="52.0" text-anchor="end" font-family="Segoe UI,sans-serif" font-size="11" fill="#64748b">34,077</text>
  <polygon points="72.0,356.0 72.0,329.9 84.3,330.9 96.7,331.8 109.0,332.8 121.4,333.8 133.7,334.8 146.1,328.4 158.4,329.4 170.7,324.7 183.1,325.8 195.4,326.8 207.8,318.5 220.1,319.6 232.5,314.9 244.8,316.0 257.1,317.1 269.5,318.2 281.8,319.3 294.2,320.4 306.5,316.5 318.9,296.7 331.2,267.6 343.5,269.2 355.9,270.7 368.2,272.2 380.6,273.7 392.9,275.1 405.3,276.6 417.6,251.2 429.9,239.2 442.3,200.1 454.6,202.2 467.0,204.3 479.3,206.3 491.7,208.4 504.0,210.4 516.3,212.4 528.7,190.9 541.0,193.1 553.4,195.2 565.7,197.4 578.1,172.6 590.4,175.0 602.7,177.3 615.1,179.6 627.4,181.8 639.8,157.8 652.1,160.3 664.5,153.4 676.8,155.9 689.1,158.4 701.5,93.8 713.8,96.8 726.2,99.8 738.5,102.7 750.9,105.6 763.2,108.5 775.5,111.4 787.9,114.3 800.2,117.1 812.6,119.9 824.9,122.7 837.3,125.4 849.6,78.2 861.9,81.3 874.3,84.4 886.6,87.5 899.0,90.6 911.3,93.6 923.7,96.6 936.0,69.2 936.0,356.0" fill="#2563eb" fill-opacity="0.12"/>
  <polyline points="72.0,329.9 84.3,330.9 96.7,331.8 109.0,332.8 121.4,333.8 133.7,334.8 146.1,328.4 158.4,329.4 170.7,324.7 183.1,325.8 195.4,326.8 207.8,318.5 220.1,319.6 232.5,314.9 244.8,316.0 257.1,317.1 269.5,318.2 281.8,319.3 294.2,320.4 306.5,316.5 318.9,296.7 331.2,267.6 343.5,269.2 355.9,270.7 368.2,272.2 380.6,273.7 392.9,275.1 405.3,276.6 417.6,251.2 429.9,239.2 442.3,200.1 454.6,202.2 467.0,204.3 479.3,206.3 491.7,208.4 504.0,210.4 516.3,212.4 528.7,190.9 541.0,193.1 553.4,195.2 565.7,197.4 578.1,172.6 590.4,175.0 602.7,177.3 615.1,179.6 627.4,181.8 639.8,157.8 652.1,160.3 664.5,153.4 676.8,155.9 689.1,158.4 701.5,93.8 713.8,96.8 726.2,99.8 738.5,102.7 750.9,105.6 763.2,108.5 775.5,111.4 787.9,114.3 800.2,117.1 812.6,119.9 824.9,122.7 837.3,125.4 849.6,78.2 861.9,81.3 874.3,84.4 886.6,87.5 899.0,90.6 911.3,93.6 923.7,96.6 936.0,69.2" fill="none" stroke="#2563eb" stroke-width="2.5" stroke-linejoin="round" stroke-linecap="round"/>
  <text x="72.0" y="392" text-anchor="middle" font-family="Segoe UI,sans-serif" font-size="11" fill="#64748b">2026-02-17</text><text x="504.0" y="392" text-anchor="middle" font-family="Segoe UI,sans-serif" font-size="11" fill="#64748b">2026-04-14</text><text x="936.0" y="392" text-anchor="middle" font-family="Segoe UI,sans-serif" font-size="11" fill="#64748b">2026-06-09</text>
  <circle cx="936.0" cy="69.2" r="4" fill="#2563eb"/>
</svg>
